{"title":"Spider-Man Homecoming 2017 Movies HD TS XviD Clean Audio New Sam","magnet":"magnet:?xt=urn:btih:d414c4a3d37b604a50a9d71c4bf4c8e5ed4549e5&dn=Spider-Man+Homecoming+2017+Movies+HD+TS+XviD+Clean+Audio+New+Sam&tr=udp%3A%2F%2Ftracker.leechers-paradise.org%3A6969&tr=udp%3A%2F%2Fzer0day.ch%3A1337&tr=udp%3A%2F%2Fopen.demonii.com%3A1337&tr=udp%3A%2F%2Ftracker.coppersurfer.tk%3A6969&tr=udp%3A%2F%2Fexodus.desync.com%3A6969","uploader":"basicssom","categoryP":"video","categoryS":"movies","size":"739604529","seeders":"1","leechers":"493","description":"----------------------------------------------------------------\r\nSpider-Man Homecoming 2017 Movies HD TS XviD Clean Audio AAC New Source with Sample &#x263B;rDX&#x263B;\r\n\r\nSCREEN SHOTS &amp; POSTER:\r\n   <a href=\"\nhttp://postimage.co.nr/2017/7/1/quality/index.html\" rel=\"nofollow\" target=\"_NEW\">\nhttp://postimage.co.nr/2017/7/1/quality/index.html</a>  <a href=\"\nhttp://postimage.co.nr/2017/7/1/quality/1.html\" rel=\"nofollow\" target=\"_NEW\">\nhttp://postimage.co.nr/2017/7/1/quality/1.html</a>   <a href=\"\nhttp://postimage.co.nr/2017/7/1/quality/2.html\" rel=\"nofollow\" target=\"_NEW\">\nhttp://postimage.co.nr/2017/7/1/quality/2.html</a>   <a href=\"\nhttp://postimage.co.nr/2017/7/1/quality/3.html\" rel=\"nofollow\" target=\"_NEW\">\nhttp://postimage.co.nr/2017/7/1/quality/3.html</a>   <a href=\"\nhttp://postimage.co.nr/2017/7/1/quality/4.html\" rel=\"nofollow\" target=\"_NEW\">\nhttp://postimage.co.nr/2017/7/1/quality/4.html</a>   <a href=\"\nhttp://postimage.co.nr/2017/7/1/quality/5.html\" rel=\"nofollow\" target=\"_NEW\">\nhttp://postimage.co.nr/2017/7/1/quality/5.html</a>   <a href=\"\nhttp://postimage.co.nr/2017/7/1/quality/6.html\" rel=\"nofollow\" target=\"_NEW\">\nhttp://postimage.co.nr/2017/7/1/quality/6.html</a>   <a href=\"\nhttp://postimage.co.nr/2017/7/1/quality/7.html\" rel=\"nofollow\" target=\"_NEW\">\nhttp://postimage.co.nr/2017/7/1/quality/7.html</a>   <a href=\"\nhttp://postimage.co.nr/2017/7/1/quality/8.html\" rel=\"nofollow\" target=\"_NEW\">\nhttp://postimage.co.nr/2017/7/1/quality/8.html</a>   <a href=\"\nhttp://postimage.co.nr/2017/7/1/quality/9.html\" rel=\"nofollow\" target=\"_NEW\">\nhttp://postimage.co.nr/2017/7/1/quality/9.html</a>   <a href=\"\nhttp://postimage.co.nr/2017/7/1/quality/10.html\" rel=\"nofollow\" target=\"_NEW\">\nhttp://postimage.co.nr/2017/7/1/quality/10.html</a>\r\n\r\nFile size                                : 697 MiB\r\nDuration                                 : 2 h 3 min\r\nOverall bit rate mode                    : Constant\r\nOverall bit rate                         : 788 kb/s\r\nMovie name                               : Spider-Man Homecoming 2017 Movies HD TS XviD Clean Audio AAC New Source &#x263B;rDX&#x263B;\r\n\r\nVideo\r\nID                                       : 2\r\nFormat                                   : AVC\r\nFormat/Info                              : Advanced Video Codec\r\nFormat profile                           : <a class=\"__cf_email__\" href=\"/cdn-cgi/l/email-protection\" data-cfemail=\"5d103c34331d116e\">[email&#xA0;protected]</a><script data-cfhash=\"f9e31\" type=\"text/javascript\">/* <![CDATA[ */!function(t,e,r,n,c,a,p){try{t=document.currentScript||function(){for(t=document.getElementsByTagName('script'),e=t.length;e--;)if(t[e].getAttribute('data-cfhash'))return t[e]}();if(t&&(c=t.previousSibling)){p=t.parentNode;if(a=c.getAttribute('data-cfemail')){for(e='',r='0x'+a.substr(0,2)|0,n=2;a.length-n;n+=2)e+='%'+('0'+('0x'+a.substr(n,2)^r).toString(16)).slice(-2);p.replaceChild(document.createTextNode(decodeURIComponent(e)),c)}p.removeChild(t)}}catch(u){}}()/* ]]> */</script>\r\nFormat settings, CABAC                   : Yes\r\nFormat settings, ReFrames                : 2 frames\r\nFormat settings, GOP                     : M=1, N=12\r\nCodec ID                                 : V_MPEG4/ISO/AVC\r\nDuration                                 : 2 h 3 min\r\nBit rate mode                            : Constant\r\nBit rate                                 : 661 kb/s\r\nWidth                                    : 680 pixels\r\nHeight                                   : 290 pixels\r\nDisplay aspect ratio                     : 2.35:1\r\nFrame rate mode                          : Constant\r\nFrame rate                               : 30.000 FPS\r\nColor space                              : YUV\r\nChroma subsampling                       : 4:2:0\r\nBit depth                                : 8 bits\r\nScan type                                : Progressive\r\nBits/(Pixel*Frame)                       : 0.112\r\nStream size                              : 570 MiB (82%)\r\nTitle                                    : &#x263B;rDX&#x263B;\r\nDefault                                  : Yes\r\nForced                                   : No\r\n\r\nAudio\r\nID                                       : 1\r\nFormat                                   : MPEG Audio\r\nFormat version                           : Version 1\r\nFormat profile                           : Layer 3\r\nCodec ID                                 : A_MPEG/L3\r\nCodec ID/Hint                            : MP3\r\nDuration                                 : 2 h 3 min\r\nBit rate mode                            : Constant\r\nBit rate                                 : 128 kb/s\r\nChannel(s)                               : 2 channels\r\nSampling rate                            : 44.1 kHz\r\nCompression mode                         : Lossy\r\nDelay relative to video                  : 18 ms\r\nStream size                              : 113 MiB (16%)\r\nTitle                                    : &#x263B;rDX&#x263B;\r\nDefault                                  : Yes\r\nForced                                   : No","last_updated":"2017-07-22T12:02:46.354Z","parsed":{"xt":"urn:btih:d414c4a3d37b604a50a9d71c4bf4c8e5ed4549e5","dn":"Spider-Man Homecoming 2017 Movies HD TS XviD Clean Audio New Sam","tr":["udp://exodus.desync.com:6969","udp://open.demonii.com:1337","udp://tracker.coppersurfer.tk:6969","udp://tracker.leechers-paradise.org:6969","udp://zer0day.ch:1337"],"infoHash":"d414c4a3d37b604a50a9d71c4bf4c8e5ed4549e5","infoHashBuffer":{"type":"Buffer","data":[212,20,196,163,211,123,96,74,80,169,215,28,75,244,200,229,237,69,73,229]},"name":"Spider-Man Homecoming 2017 Movies HD TS XviD Clean Audio New Sam","announce":["udp://exodus.desync.com:6969","udp://open.demonii.com:1337","udp://tracker.coppersurfer.tk:6969","udp://tracker.leechers-paradise.org:6969","udp://zer0day.ch:1337"],"urlList":[]}}